# xmcd
#
# Track frame offsets:
#	150
#	11043
#	26713
#	45740
#	60833
#	78312
#	89447
#	104091
#	119971
#	135206
#	150363
#	167602
#	182465
#	197676
#	216474
#	233075
#	250747
#	267710
#	285885
#	300153
#
# Disc length: 4190 seconds
#
# Revision: 1
# Processed by: cddbd v1.5.1PL0 Copyright (c) Steve Scherf et al.
# Submitted via: audiograbber 1.83.01
#
DISCID=08105c14
DTITLE=Various Artist - Rc54
DYEAR=1999
DGENRE=Country
TTITLE0=Dwight Yoakum - Crazy Little Thing Called Love
TTITLE1=Dixie Chicks - Tonight The Heartache's On Me
TTITLE2=Faith Hill - The Secret Of Life
TTITLE3=Alabama - God Must Have Spent A Little More Time On You (Single Version
TTITLE3=)
TTITLE4=Kenny Chesney - You Hade Me From Hello
TTITLE5=John Michael Montgomery - Hello L.o.v.e.
TTITLE6=Chely Wright - Single White Female
TTITLE7=Joe Diffie - A Night To Remember
TTITLE8=Shedaisy - Little Goodbyes
TTITLE9=Jessica Andrews - I Will Be There For You
TTITLE10=Brad Paisley - Who Needs Pictures
TTITLE11=Jo Dee Messina - Lessons In Leavin' (Short Version)
TTITLE12=Clay Walker - She's Always Right
TTITLE13=Deanna Carter - Angels Working Overtime (Edit)
TTITLE14=Mark Chesnutt - This Heartache Never Sleeps
TTITLE15=Reba - One Honest Heart
TTITLE16=Diamond Rio - I Know How The River Feels
TTITLE17=Lonestar - Amazed
TTITLE18=Kenny Rogers - The Greatest
TTITLE19=Shane Minor - Slave To The Habit
EXTD=
EXTT0=
EXTT1=
EXTT2=
EXTT3=
EXTT4=
EXTT5=
EXTT6=
EXTT7=
EXTT8=
EXTT9=
EXTT10=
EXTT11=
EXTT12=
EXTT13=
EXTT14=
EXTT15=
EXTT16=
EXTT17=
EXTT18=
EXTT19=
PLAYORDER=
